<svg xmlns="http://www.w3.org/2000/svg" xmlns:xlink="http://www.w3.org/1999/xlink" width="256" zoomAndPan="magnify" viewBox="0 0 192 56.999997" height="76" preserveAspectRatio="xMidYMid meet" version="1.0"><defs><g/><clipPath id="31f3151c2b"><path d="M 185.285156 35.429688 L 192 35.429688 L 192 42.144531 L 185.285156 42.144531 Z M 185.285156 35.429688 " clip-rule="nonzero"/></clipPath><clipPath id="f579a07a24"><path d="M 188.644531 35.429688 C 186.789062 35.429688 185.285156 36.933594 185.285156 38.789062 C 185.285156 40.644531 186.789062 42.144531 188.644531 42.144531 C 190.496094 42.144531 192 40.644531 192 38.789062 C 192 36.933594 190.496094 35.429688 188.644531 35.429688 Z M 188.644531 35.429688 " clip-rule="nonzero"/></clipPath><clipPath id="e6ef649d6b"><path d="M 0 7.527344 L 39.746094 7.527344 L 39.746094 49.710938 L 0 49.710938 Z M 0 7.527344 " clip-rule="nonzero"/></clipPath><clipPath id="3c07c3f90b"><path d="M 22.949219 27.070312 L 5.117188 27.070312 C 4.425781 27.070312 3.925781 26.410156 4.113281 25.742188 L 9.007812 8.296875 C 9.132812 7.84375 9.546875 7.535156 10.011719 7.535156 L 27.84375 7.535156 C 28.535156 7.535156 29.035156 8.195312 28.851562 8.859375 L 23.953125 26.304688 C 23.828125 26.757812 23.417969 27.070312 22.949219 27.070312 Z M 11.367188 40.238281 L 13.886719 31.253906 C 14.074219 30.589844 13.574219 29.929688 12.882812 29.929688 L 3.714844 29.929688 C 3.25 29.929688 2.835938 30.238281 2.710938 30.691406 L 0.191406 39.671875 C 0.00390625 40.339844 0.503906 41 1.195312 41 L 10.363281 41 C 10.832031 41 11.242188 40.6875 11.367188 40.238281 Z M 16.007812 30.691406 L 11.109375 48.136719 C 10.921875 48.804688 11.425781 49.464844 12.117188 49.464844 L 29.949219 49.464844 C 30.414062 49.464844 30.828125 49.152344 30.953125 48.703125 L 35.847656 31.253906 C 36.035156 30.589844 35.535156 29.929688 34.84375 29.929688 L 17.011719 29.929688 C 16.542969 29.929688 16.132812 30.238281 16.007812 30.691406 Z M 28.59375 16.757812 L 26.074219 25.742188 C 25.886719 26.410156 26.386719 27.070312 27.078125 27.070312 L 36.246094 27.070312 C 36.710938 27.070312 37.121094 26.757812 37.25 26.304688 L 39.769531 17.324219 C 39.957031 16.65625 39.457031 15.996094 38.765625 15.996094 L 29.597656 15.996094 C 29.128906 15.996094 28.71875 16.308594 28.59375 16.757812 Z M 28.59375 16.757812 " clip-rule="nonzero"/></clipPath><linearGradient x1="114.296458" gradientTransform="matrix(0.0838593, 0, 0, 0.0838593, 0.150952, 7.533694)" y1="-47.633931" x2="358.262208" gradientUnits="userSpaceOnUse" y2="546.757797" id="a8062b3cc2"><stop stop-opacity="1" stop-color="rgb(38.398743%, 29.798889%, 96.099854%)" offset="0"/><stop stop-opacity="1" stop-color="rgb(38.398743%, 29.798889%, 96.099854%)" offset="0.0625"/><stop stop-opacity="1" stop-color="rgb(38.348389%, 29.902649%, 96.105957%)" offset="0.09375"/><stop stop-opacity="1" stop-color="rgb(38.153076%, 30.299377%, 96.133423%)" offset="0.0976562"/><stop stop-opacity="1" stop-color="rgb(38.009644%, 30.592346%, 96.154785%)" offset="0.101563"/><stop stop-opacity="1" stop-color="rgb(37.864685%, 30.885315%, 96.174622%)" offset="0.105469"/><stop stop-opacity="1" stop-color="rgb(37.721252%, 31.178284%, 96.195984%)" offset="0.109375"/><stop stop-opacity="1" stop-color="rgb(37.576294%, 31.471252%, 96.21582%)" offset="0.113281"/><stop stop-opacity="1" stop-color="rgb(37.432861%, 31.765747%, 96.237183%)" offset="0.117188"/><stop stop-opacity="1" stop-color="rgb(37.287903%, 32.058716%, 96.257019%)" offset="0.121094"/><stop stop-opacity="1" stop-color="rgb(37.14447%, 32.351685%, 96.278381%)" offset="0.125"/><stop stop-opacity="1" stop-color="rgb(36.999512%, 32.644653%, 96.298218%)" offset="0.128906"/><stop stop-opacity="1" stop-color="rgb(36.856079%, 32.937622%, 96.31958%)" offset="0.132812"/><stop stop-opacity="1" stop-color="rgb(36.711121%, 33.230591%, 96.339417%)" offset="0.136719"/><stop stop-opacity="1" stop-color="rgb(36.567688%, 33.52356%, 96.360779%)" offset="0.140625"/><stop stop-opacity="1" stop-color="rgb(36.422729%, 33.816528%, 96.380615%)" offset="0.144531"/><stop stop-opacity="1" stop-color="rgb(36.279297%, 34.109497%, 96.400452%)" offset="0.148438"/><stop stop-opacity="1" stop-color="rgb(36.134338%, 34.402466%, 96.420288%)" offset="0.152344"/><stop stop-opacity="1" stop-color="rgb(35.990906%, 34.69696%, 96.44165%)" offset="0.15625"/><stop stop-opacity="1" stop-color="rgb(35.845947%, 34.989929%, 96.461487%)" offset="0.160156"/><stop stop-opacity="1" stop-color="rgb(35.702515%, 35.282898%, 96.482849%)" offset="0.164062"/><stop stop-opacity="1" stop-color="rgb(35.557556%, 35.575867%, 96.502686%)" offset="0.167969"/><stop stop-opacity="1" stop-color="rgb(35.414124%, 35.868835%, 96.524048%)" offset="0.171875"/><stop stop-opacity="1" stop-color="rgb(35.269165%, 36.161804%, 96.543884%)" offset="0.175781"/><stop stop-opacity="1" stop-color="rgb(35.125732%, 36.454773%, 96.565247%)" offset="0.179688"/><stop stop-opacity="1" stop-color="rgb(34.980774%, 36.747742%, 96.585083%)" offset="0.183594"/><stop stop-opacity="1" stop-color="rgb(34.837341%, 37.04071%, 96.606445%)" offset="0.1875"/><stop stop-opacity="1" stop-color="rgb(34.692383%, 37.333679%, 96.626282%)" offset="0.191406"/><stop stop-opacity="1" stop-color="rgb(34.54895%, 37.628174%, 96.647644%)" offset="0.195312"/><stop stop-opacity="1" stop-color="rgb(34.403992%, 37.921143%, 96.66748%)" offset="0.199219"/><stop stop-opacity="1" stop-color="rgb(34.260559%, 38.214111%, 96.688843%)" offset="0.203125"/><stop stop-opacity="1" stop-color="rgb(34.115601%, 38.50708%, 96.708679%)" offset="0.207031"/><stop stop-opacity="1" stop-color="rgb(33.972168%, 38.800049%, 96.730042%)" offset="0.210938"/><stop stop-opacity="1" stop-color="rgb(33.827209%, 39.093018%, 96.749878%)" offset="0.214844"/><stop stop-opacity="1" stop-color="rgb(33.683777%, 39.385986%, 96.77124%)" offset="0.21875"/><stop stop-opacity="1" stop-color="rgb(33.538818%, 39.678955%, 96.791077%)" offset="0.222656"/><stop stop-opacity="1" stop-color="rgb(33.395386%, 39.971924%, 96.810913%)" offset="0.226563"/><stop stop-opacity="1" stop-color="rgb(33.250427%, 40.264893%, 96.83075%)" offset="0.230469"/><stop stop-opacity="1" stop-color="rgb(33.106995%, 40.557861%, 96.852112%)" offset="0.234375"/><stop stop-opacity="1" stop-color="rgb(32.962036%, 40.85083%, 96.871948%)" offset="0.238281"/><stop stop-opacity="1" stop-color="rgb(32.818604%, 41.145325%, 96.893311%)" offset="0.242188"/><stop stop-opacity="1" stop-color="rgb(32.673645%, 41.438293%, 96.913147%)" offset="0.246094"/><stop stop-opacity="1" stop-color="rgb(32.530212%, 41.731262%, 96.934509%)" offset="0.25"/><stop stop-opacity="1" stop-color="rgb(32.385254%, 42.024231%, 96.954346%)" offset="0.253906"/><stop stop-opacity="1" stop-color="rgb(32.241821%, 42.3172%, 96.975708%)" offset="0.257813"/><stop stop-opacity="1" stop-color="rgb(32.096863%, 42.610168%, 96.995544%)" offset="0.261719"/><stop stop-opacity="1" stop-color="rgb(31.95343%, 42.903137%, 97.016907%)" offset="0.265625"/><stop stop-opacity="1" stop-color="rgb(31.808472%, 43.196106%, 97.036743%)" offset="0.269531"/><stop stop-opacity="1" stop-color="rgb(31.665039%, 43.489075%, 97.058105%)" offset="0.273438"/><stop stop-opacity="1" stop-color="rgb(31.520081%, 43.782043%, 97.077942%)" offset="0.277344"/><stop stop-opacity="1" stop-color="rgb(31.376648%, 44.076538%, 97.099304%)" offset="0.28125"/><stop stop-opacity="1" stop-color="rgb(31.231689%, 44.369507%, 97.119141%)" offset="0.285156"/><stop stop-opacity="1" stop-color="rgb(31.088257%, 44.662476%, 97.140503%)" offset="0.289062"/><stop stop-opacity="1" stop-color="rgb(30.943298%, 44.955444%, 97.160339%)" offset="0.292969"/><stop stop-opacity="1" stop-color="rgb(30.799866%, 45.248413%, 97.181702%)" offset="0.296875"/><stop stop-opacity="1" stop-color="rgb(30.654907%, 45.541382%, 97.201538%)" offset="0.300781"/><stop stop-opacity="1" stop-color="rgb(30.511475%, 45.834351%, 97.221375%)" offset="0.304688"/><stop stop-opacity="1" stop-color="rgb(30.366516%, 46.127319%, 97.241211%)" offset="0.308594"/><stop stop-opacity="1" stop-color="rgb(30.223083%, 46.420288%, 97.262573%)" offset="0.3125"/><stop stop-opacity="1" stop-color="rgb(30.078125%, 46.713257%, 97.28241%)" offset="0.316406"/><stop stop-opacity="1" stop-color="rgb(29.934692%, 47.007751%, 97.303772%)" offset="0.320312"/><stop stop-opacity="1" stop-color="rgb(29.789734%, 47.30072%, 97.323608%)" offset="0.324219"/><stop stop-opacity="1" stop-color="rgb(29.646301%, 47.593689%, 97.344971%)" offset="0.328125"/><stop stop-opacity="1" stop-color="rgb(29.501343%, 47.886658%, 97.364807%)" offset="0.332031"/><stop stop-opacity="1" stop-color="rgb(29.35791%, 48.179626%, 97.386169%)" offset="0.335938"/><stop stop-opacity="1" stop-color="rgb(29.212952%, 48.472595%, 97.406006%)" offset="0.339844"/><stop stop-opacity="1" stop-color="rgb(29.069519%, 48.765564%, 97.427368%)" offset="0.34375"/><stop stop-opacity="1" stop-color="rgb(28.924561%, 49.058533%, 97.447205%)" offset="0.347656"/><stop stop-opacity="1" stop-color="rgb(28.781128%, 49.351501%, 97.468567%)" offset="0.351562"/><stop stop-opacity="1" stop-color="rgb(28.636169%, 49.64447%, 97.488403%)" offset="0.355469"/><stop stop-opacity="1" stop-color="rgb(28.492737%, 49.938965%, 97.509766%)" offset="0.359375"/><stop stop-opacity="1" stop-color="rgb(28.347778%, 50.231934%, 97.529602%)" offset="0.363281"/><stop stop-opacity="1" stop-color="rgb(28.204346%, 50.524902%, 97.550964%)" offset="0.367188"/><stop stop-opacity="1" stop-color="rgb(28.059387%, 50.817871%, 97.570801%)" offset="0.371094"/><stop stop-opacity="1" stop-color="rgb(27.915955%, 51.11084%, 97.592163%)" offset="0.375"/><stop stop-opacity="1" stop-color="rgb(27.770996%, 51.403809%, 97.612%)" offset="0.378906"/><stop stop-opacity="1" stop-color="rgb(27.627563%, 51.696777%, 97.631836%)" offset="0.382812"/><stop stop-opacity="1" stop-color="rgb(27.482605%, 51.989746%, 97.651672%)" offset="0.386719"/><stop stop-opacity="1" stop-color="rgb(27.339172%, 52.282715%, 97.673035%)" offset="0.390625"/><stop stop-opacity="1" stop-color="rgb(27.194214%, 52.575684%, 97.692871%)" offset="0.394531"/><stop stop-opacity="1" stop-color="rgb(27.050781%, 52.870178%, 97.714233%)" offset="0.398438"/><stop stop-opacity="1" stop-color="rgb(26.905823%, 53.163147%, 97.73407%)" offset="0.402344"/><stop stop-opacity="1" stop-color="rgb(26.76239%, 53.456116%, 97.755432%)" offset="0.40625"/><stop stop-opacity="1" stop-color="rgb(26.617432%, 53.749084%, 97.775269%)" offset="0.410156"/><stop stop-opacity="1" stop-color="rgb(26.473999%, 54.042053%, 97.796631%)" offset="0.414063"/><stop stop-opacity="1" stop-color="rgb(26.329041%, 54.335022%, 97.816467%)" offset="0.417969"/><stop stop-opacity="1" stop-color="rgb(26.185608%, 54.627991%, 97.83783%)" offset="0.421875"/><stop stop-opacity="1" stop-color="rgb(26.040649%, 54.920959%, 97.857666%)" offset="0.425781"/><stop stop-opacity="1" stop-color="rgb(25.897217%, 55.213928%, 97.879028%)" offset="0.429688"/><stop stop-opacity="1" stop-color="rgb(25.752258%, 55.506897%, 97.898865%)" offset="0.433594"/><stop stop-opacity="1" stop-color="rgb(25.608826%, 55.801392%, 97.920227%)" offset="0.4375"/><stop stop-opacity="1" stop-color="rgb(25.463867%, 56.09436%, 97.940063%)" offset="0.441406"/><stop stop-opacity="1" stop-color="rgb(25.320435%, 56.387329%, 97.961426%)" offset="0.445313"/><stop stop-opacity="1" stop-color="rgb(25.175476%, 56.680298%, 97.981262%)" offset="0.449219"/><stop stop-opacity="1" stop-color="rgb(25.032043%, 56.973267%, 98.002625%)" offset="0.453125"/><stop stop-opacity="1" stop-color="rgb(24.887085%, 57.266235%, 98.022461%)" offset="0.457031"/><stop stop-opacity="1" stop-color="rgb(24.743652%, 57.559204%, 98.042297%)" offset="0.460938"/><stop stop-opacity="1" stop-color="rgb(24.598694%, 57.852173%, 98.062134%)" offset="0.464844"/><stop stop-opacity="1" stop-color="rgb(24.455261%, 58.145142%, 98.083496%)" offset="0.46875"/><stop stop-opacity="1" stop-color="rgb(24.310303%, 58.43811%, 98.103333%)" offset="0.472656"/><stop stop-opacity="1" stop-color="rgb(24.16687%, 58.732605%, 98.124695%)" offset="0.476562"/><stop stop-opacity="1" stop-color="rgb(24.021912%, 59.025574%, 98.144531%)" offset="0.480469"/><stop stop-opacity="1" stop-color="rgb(23.878479%, 59.318542%, 98.165894%)" offset="0.484375"/><stop stop-opacity="1" stop-color="rgb(23.733521%, 59.611511%, 98.18573%)" offset="0.488281"/><stop stop-opacity="1" stop-color="rgb(23.590088%, 59.90448%, 98.207092%)" offset="0.492188"/><stop stop-opacity="1" stop-color="rgb(23.445129%, 60.197449%, 98.226929%)" offset="0.496094"/><stop stop-opacity="1" stop-color="rgb(23.301697%, 60.490417%, 98.248291%)" offset="0.5"/><stop stop-opacity="1" stop-color="rgb(23.156738%, 60.783386%, 98.268127%)" offset="0.503906"/><stop stop-opacity="1" stop-color="rgb(23.013306%, 61.076355%, 98.28949%)" offset="0.507812"/><stop stop-opacity="1" stop-color="rgb(22.868347%, 61.369324%, 98.309326%)" offset="0.511719"/><stop stop-opacity="1" stop-color="rgb(22.724915%, 61.663818%, 98.330688%)" offset="0.515625"/><stop stop-opacity="1" stop-color="rgb(22.579956%, 61.956787%, 98.350525%)" offset="0.519531"/><stop stop-opacity="1" stop-color="rgb(22.436523%, 62.249756%, 98.371887%)" offset="0.523438"/><stop stop-opacity="1" stop-color="rgb(22.291565%, 62.542725%, 98.391724%)" offset="0.527344"/><stop stop-opacity="1" stop-color="rgb(22.148132%, 62.835693%, 98.413086%)" offset="0.53125"/><stop stop-opacity="1" stop-color="rgb(22.003174%, 63.128662%, 98.432922%)" offset="0.535156"/><stop stop-opacity="1" stop-color="rgb(21.859741%, 63.421631%, 98.452759%)" offset="0.539063"/><stop stop-opacity="1" stop-color="rgb(21.714783%, 63.7146%, 98.472595%)" offset="0.542969"/><stop stop-opacity="1" stop-color="rgb(21.57135%, 64.007568%, 98.493958%)" offset="0.546875"/><stop stop-opacity="1" stop-color="rgb(21.426392%, 64.300537%, 98.513794%)" offset="0.550781"/><stop stop-opacity="1" stop-color="rgb(21.282959%, 64.595032%, 98.535156%)" offset="0.554688"/><stop stop-opacity="1" stop-color="rgb(21.138%, 64.888%, 98.554993%)" offset="0.558594"/><stop stop-opacity="1" stop-color="rgb(20.994568%, 65.180969%, 98.576355%)" offset="0.5625"/><stop stop-opacity="1" stop-color="rgb(20.849609%, 65.473938%, 98.596191%)" offset="0.566406"/><stop stop-opacity="1" stop-color="rgb(20.706177%, 65.766907%, 98.617554%)" offset="0.570312"/><stop stop-opacity="1" stop-color="rgb(20.561218%, 66.059875%, 98.63739%)" offset="0.574219"/><stop stop-opacity="1" stop-color="rgb(20.417786%, 66.352844%, 98.658752%)" offset="0.578125"/><stop stop-opacity="1" stop-color="rgb(20.272827%, 66.645813%, 98.678589%)" offset="0.582031"/><stop stop-opacity="1" stop-color="rgb(20.129395%, 66.938782%, 98.699951%)" offset="0.585938"/><stop stop-opacity="1" stop-color="rgb(19.984436%, 67.23175%, 98.719788%)" offset="0.589844"/><stop stop-opacity="1" stop-color="rgb(19.841003%, 67.526245%, 98.74115%)" offset="0.59375"/><stop stop-opacity="1" stop-color="rgb(19.696045%, 67.819214%, 98.760986%)" offset="0.597656"/><stop stop-opacity="1" stop-color="rgb(19.552612%, 68.112183%, 98.782349%)" offset="0.601562"/><stop stop-opacity="1" stop-color="rgb(19.407654%, 68.405151%, 98.802185%)" offset="0.605469"/><stop stop-opacity="1" stop-color="rgb(19.264221%, 68.69812%, 98.823547%)" offset="0.609375"/><stop stop-opacity="1" stop-color="rgb(19.119263%, 68.991089%, 98.843384%)" offset="0.613281"/><stop stop-opacity="1" stop-color="rgb(18.97583%, 69.284058%, 98.86322%)" offset="0.617188"/><stop stop-opacity="1" stop-color="rgb(18.830872%, 69.577026%, 98.883057%)" offset="0.621094"/><stop stop-opacity="1" stop-color="rgb(18.687439%, 69.869995%, 98.904419%)" offset="0.625"/><stop stop-opacity="1" stop-color="rgb(18.54248%, 70.162964%, 98.924255%)" offset="0.628906"/><stop stop-opacity="1" stop-color="rgb(18.399048%, 70.457458%, 98.945618%)" offset="0.632813"/><stop stop-opacity="1" stop-color="rgb(18.254089%, 70.750427%, 98.965454%)" offset="0.636719"/><stop stop-opacity="1" stop-color="rgb(18.110657%, 71.043396%, 98.986816%)" offset="0.640625"/><stop stop-opacity="1" stop-color="rgb(17.965698%, 71.336365%, 99.006653%)" offset="0.644531"/><stop stop-opacity="1" stop-color="rgb(17.822266%, 71.629333%, 99.028015%)" offset="0.648438"/><stop stop-opacity="1" stop-color="rgb(17.677307%, 71.922302%, 99.047852%)" offset="0.652344"/><stop stop-opacity="1" stop-color="rgb(17.533875%, 72.215271%, 99.069214%)" offset="0.65625"/><stop stop-opacity="1" stop-color="rgb(17.388916%, 72.50824%, 99.08905%)" offset="0.660156"/><stop stop-opacity="1" stop-color="rgb(17.245483%, 72.801208%, 99.110413%)" offset="0.664062"/><stop stop-opacity="1" stop-color="rgb(17.100525%, 73.094177%, 99.130249%)" offset="0.667969"/><stop stop-opacity="1" stop-color="rgb(16.957092%, 73.388672%, 99.151611%)" offset="0.671875"/><stop stop-opacity="1" stop-color="rgb(16.812134%, 73.681641%, 99.171448%)" offset="0.675781"/><stop stop-opacity="1" stop-color="rgb(16.668701%, 73.974609%, 99.19281%)" offset="0.679688"/><stop stop-opacity="1" stop-color="rgb(16.523743%, 74.267578%, 99.212646%)" offset="0.683594"/><stop stop-opacity="1" stop-color="rgb(16.38031%, 74.560547%, 99.234009%)" offset="0.6875"/><stop stop-opacity="1" stop-color="rgb(16.235352%, 74.853516%, 99.253845%)" offset="0.691406"/><stop stop-opacity="1" stop-color="rgb(16.091919%, 75.146484%, 99.273682%)" offset="0.695312"/><stop stop-opacity="1" stop-color="rgb(15.94696%, 75.439453%, 99.293518%)" offset="0.699219"/><stop stop-opacity="1" stop-color="rgb(15.803528%, 75.732422%, 99.31488%)" offset="0.703125"/><stop stop-opacity="1" stop-color="rgb(15.658569%, 76.025391%, 99.334717%)" offset="0.707031"/><stop stop-opacity="1" stop-color="rgb(15.515137%, 76.319885%, 99.356079%)" offset="0.710938"/><stop stop-opacity="1" stop-color="rgb(15.370178%, 76.612854%, 99.375916%)" offset="0.714844"/><stop stop-opacity="1" stop-color="rgb(15.226746%, 76.905823%, 99.397278%)" offset="0.71875"/><stop stop-opacity="1" stop-color="rgb(15.081787%, 77.198792%, 99.417114%)" offset="0.722656"/><stop stop-opacity="1" stop-color="rgb(14.938354%, 77.49176%, 99.438477%)" offset="0.726563"/><stop stop-opacity="1" stop-color="rgb(14.793396%, 77.784729%, 99.458313%)" offset="0.730469"/><stop stop-opacity="1" stop-color="rgb(14.649963%, 78.077698%, 99.479675%)" offset="0.734375"/><stop stop-opacity="1" stop-color="rgb(14.505005%, 78.370667%, 99.499512%)" offset="0.738281"/><stop stop-opacity="1" stop-color="rgb(14.361572%, 78.663635%, 99.520874%)" offset="0.742188"/><stop stop-opacity="1" stop-color="rgb(14.216614%, 78.956604%, 99.54071%)" offset="0.746094"/><stop stop-opacity="1" stop-color="rgb(14.073181%, 79.251099%, 99.562073%)" offset="0.75"/><stop stop-opacity="1" stop-color="rgb(13.928223%, 79.544067%, 99.581909%)" offset="0.753906"/><stop stop-opacity="1" stop-color="rgb(13.78479%, 79.837036%, 99.603271%)" offset="0.757813"/><stop stop-opacity="1" stop-color="rgb(13.639832%, 80.130005%, 99.623108%)" offset="0.761719"/><stop stop-opacity="1" stop-color="rgb(13.496399%, 80.422974%, 99.64447%)" offset="0.765625"/><stop stop-opacity="1" stop-color="rgb(13.35144%, 80.715942%, 99.664307%)" offset="0.769531"/><stop stop-opacity="1" stop-color="rgb(13.208008%, 81.008911%, 99.684143%)" offset="0.773438"/><stop stop-opacity="1" stop-color="rgb(13.063049%, 81.30188%, 99.703979%)" offset="0.777344"/><stop stop-opacity="1" stop-color="rgb(12.919617%, 81.594849%, 99.725342%)" offset="0.78125"/><stop stop-opacity="1" stop-color="rgb(12.774658%, 81.887817%, 99.745178%)" offset="0.785156"/><stop stop-opacity="1" stop-color="rgb(12.631226%, 82.180786%, 99.766541%)" offset="0.789062"/><stop stop-opacity="1" stop-color="rgb(12.486267%, 82.473755%, 99.786377%)" offset="0.792969"/><stop stop-opacity="1" stop-color="rgb(12.342834%, 82.76825%, 99.807739%)" offset="0.796875"/><stop stop-opacity="1" stop-color="rgb(12.197876%, 83.061218%, 99.827576%)" offset="0.800781"/><stop stop-opacity="1" stop-color="rgb(12.054443%, 83.354187%, 99.848938%)" offset="0.804688"/><stop stop-opacity="1" stop-color="rgb(11.909485%, 83.647156%, 99.868774%)" offset="0.808594"/><stop stop-opacity="1" stop-color="rgb(11.766052%, 83.940125%, 99.890137%)" offset="0.8125"/><stop stop-opacity="1" stop-color="rgb(11.621094%, 84.233093%, 99.909973%)" offset="0.816406"/><stop stop-opacity="1" stop-color="rgb(11.477661%, 84.526062%, 99.931335%)" offset="0.820312"/><stop stop-opacity="1" stop-color="rgb(11.332703%, 84.819031%, 99.951172%)" offset="0.824219"/><stop stop-opacity="1" stop-color="rgb(11.18927%, 85.112%, 99.972534%)" offset="0.828125"/><stop stop-opacity="1" stop-color="rgb(11.09314%, 85.305786%, 99.986267%)" offset="0.84375"/><stop stop-opacity="1" stop-color="rgb(10.998535%, 85.499573%, 100%)" offset="0.875"/><stop stop-opacity="1" stop-color="rgb(10.998535%, 85.499573%, 100%)" offset="1"/></linearGradient></defs><g fill="#ffffff" fill-opacity="1"><g transform="translate(58.07261, 42.799307)"><g><path d="M 6.515625 -9.421875 L 6.515625 -5.625 L 15.53125 -5.625 C 15.53125 -4.59375 15.289062 -3.648438 14.8125 -2.796875 C 14.332031 -1.941406 13.675781 -1.257812 12.84375 -0.75 C 12.019531 -0.25 11.082031 0 10.03125 0 L 6.359375 0 C 5.378906 0 4.476562 -0.238281 3.65625 -0.71875 C 2.84375 -1.195312 2.191406 -1.847656 1.703125 -2.671875 C 1.222656 -3.492188 0.984375 -4.394531 0.984375 -5.375 L 0.984375 -18.40625 C 0.984375 -19.414062 1.234375 -20.332031 1.734375 -21.15625 C 2.234375 -21.988281 2.894531 -22.65625 3.71875 -23.15625 C 4.550781 -23.65625 5.472656 -23.90625 6.484375 -23.90625 L 16.75 -23.90625 C 16.75 -22.851562 16.535156 -21.898438 16.109375 -21.046875 C 15.691406 -20.191406 15.097656 -19.507812 14.328125 -19 C 13.554688 -18.5 12.648438 -18.25 11.609375 -18.25 L 6.515625 -18.25 L 6.515625 -14.65625 L 13.234375 -14.65625 L 11.984375 -9.421875 Z M 6.515625 -9.421875 "/></g></g></g><g fill="#ffffff" fill-opacity="1"><g transform="translate(75.828499, 42.799307)"><g><path d="M 13.609375 -20.28125 C 13.859375 -21.132812 14.328125 -21.847656 15.015625 -22.421875 C 15.703125 -23.003906 16.492188 -23.382812 17.390625 -23.5625 C 18.296875 -23.738281 19.222656 -23.679688 20.171875 -23.390625 L 13.90625 -3.140625 C 13.65625 -2.316406 13.191406 -1.617188 12.515625 -1.046875 C 12.179688 -0.734375 11.8125 -0.476562 11.40625 -0.28125 C 11 -0.09375 10.5625 0 10.09375 0 C 9.613281 0 9.171875 -0.09375 8.765625 -0.28125 C 8.359375 -0.476562 7.988281 -0.734375 7.65625 -1.046875 C 6.976562 -1.617188 6.515625 -2.316406 6.265625 -3.140625 L -0.03125 -23.390625 C 0.914062 -23.679688 1.84375 -23.738281 2.75 -23.5625 C 3.664062 -23.382812 4.460938 -23.003906 5.140625 -22.421875 C 5.816406 -21.847656 6.289062 -21.132812 6.5625 -20.28125 L 10.09375 -7.453125 Z M 13.609375 -20.28125 "/></g></g></g><g fill="#ffffff" fill-opacity="1"><g transform="translate(96.016013, 42.799307)"><g><path d="M 6.515625 -9.421875 L 6.515625 -5.625 L 15.53125 -5.625 C 15.53125 -4.59375 15.289062 -3.648438 14.8125 -2.796875 C 14.332031 -1.941406 13.675781 -1.257812 12.84375 -0.75 C 12.019531 -0.25 11.082031 0 10.03125 0 L 6.359375 0 C 5.378906 0 4.476562 -0.238281 3.65625 -0.71875 C 2.84375 -1.195312 2.191406 -1.847656 1.703125 -2.671875 C 1.222656 -3.492188 0.984375 -4.394531 0.984375 -5.375 L 0.984375 -18.40625 C 0.984375 -19.414062 1.234375 -20.332031 1.734375 -21.15625 C 2.234375 -21.988281 2.894531 -22.65625 3.71875 -23.15625 C 4.550781 -23.65625 5.472656 -23.90625 6.484375 -23.90625 L 16.75 -23.90625 C 16.75 -22.851562 16.535156 -21.898438 16.109375 -21.046875 C 15.691406 -20.191406 15.097656 -19.507812 14.328125 -19 C 13.554688 -18.5 12.648438 -18.25 11.609375 -18.25 L 6.515625 -18.25 L 6.515625 -14.65625 L 13.234375 -14.65625 L 11.984375 -9.421875 Z M 6.515625 -9.421875 "/></g></g></g><g fill="#ffffff" fill-opacity="1"><g transform="translate(113.771901, 42.799307)"><g><path d="M 16.0625 -18.671875 C 16.0625 -19.640625 16.304688 -20.507812 16.796875 -21.28125 C 17.285156 -22.0625 17.929688 -22.679688 18.734375 -23.140625 C 19.546875 -23.609375 20.421875 -23.84375 21.359375 -23.84375 L 21.359375 -5.09375 C 21.359375 -4.132812 21.117188 -3.257812 20.640625 -2.46875 C 20.160156 -1.6875 19.519531 -1.0625 18.71875 -0.59375 C 17.914062 -0.132812 17.03125 0.09375 16.0625 0.09375 L 16.0625 -1.75 L 6.4375 -14.65625 L 6.4375 -5.046875 C 6.4375 -4.097656 6.203125 -3.234375 5.734375 -2.453125 C 5.273438 -1.679688 4.65625 -1.0625 3.875 -0.59375 C 3.101562 -0.132812 2.234375 0.09375 1.265625 0.09375 L 1.265625 -18.671875 C 1.265625 -19.640625 1.5 -20.507812 1.96875 -21.28125 C 2.445312 -22.0625 3.070312 -22.679688 3.84375 -23.140625 C 4.625 -23.609375 5.488281 -23.84375 6.4375 -23.84375 L 16.0625 -9.953125 Z M 16.0625 -18.671875 "/></g></g></g><g fill="#ffffff" fill-opacity="1"><g transform="translate(136.441687, 42.799307)"><g><path d="M 5 -23.71875 L 18.671875 -23.71875 C 18.671875 -22.6875 18.4375 -21.78125 17.96875 -21 C 17.507812 -20.226562 16.894531 -19.625 16.125 -19.1875 C 15.363281 -18.757812 14.507812 -18.546875 13.5625 -18.546875 L 12.0625 -18.546875 L 12.0625 -5.125 C 12.0625 -4.175781 11.8125 -3.3125 11.3125 -2.53125 C 10.8125 -1.757812 10.140625 -1.144531 9.296875 -0.6875 C 8.453125 -0.226562 7.515625 0 6.484375 0 L 6.484375 -18.546875 L -0.09375 -18.546875 C -0.09375 -19.566406 0.128906 -20.460938 0.578125 -21.234375 C 1.035156 -22.015625 1.648438 -22.625 2.421875 -23.0625 C 3.203125 -23.5 4.0625 -23.71875 5 -23.71875 Z M 5 -23.71875 "/></g></g></g><g fill="#ffffff" fill-opacity="1"><g transform="translate(155.008122, 42.799307)"><g><path d="M 18.265625 -21.6875 C 18.523438 -21.300781 18.722656 -20.882812 18.859375 -20.4375 C 18.992188 -19.988281 19.0625 -19.53125 19.0625 -19.0625 L 19.0625 -4.8125 C 19.0625 -3.863281 18.816406 -3.019531 18.328125 -2.28125 C 17.847656 -1.539062 17.210938 -0.941406 16.421875 -0.484375 C 15.628906 -0.0234375 14.742188 0.242188 13.765625 0.328125 C 13.472656 0.347656 13.035156 0.367188 12.453125 0.390625 C 11.867188 0.421875 11.28125 0.4375 10.6875 0.4375 C 10.101562 0.445312 9.640625 0.453125 9.296875 0.453125 C 8.804688 0.453125 8.332031 0.4375 7.875 0.40625 C 7.425781 0.382812 6.988281 0.359375 6.5625 0.328125 C 5.832031 0.265625 5.140625 0.113281 4.484375 -0.125 C 3.835938 -0.363281 3.28125 -0.71875 2.8125 -1.1875 C 2.4375 -1.488281 2.179688 -1.8125 2.046875 -2.15625 C 1.796875 -2.539062 1.601562 -2.957031 1.46875 -3.40625 C 1.332031 -3.851562 1.265625 -4.320312 1.265625 -4.8125 L 1.265625 -19.0625 C 1.265625 -19.988281 1.503906 -20.820312 1.984375 -21.5625 C 2.472656 -22.3125 3.117188 -22.910156 3.921875 -23.359375 C 4.722656 -23.816406 5.601562 -24.085938 6.5625 -24.171875 C 7.488281 -24.253906 8.441406 -24.296875 9.421875 -24.296875 C 9.742188 -24.296875 10.195312 -24.289062 10.78125 -24.28125 C 11.363281 -24.28125 11.929688 -24.269531 12.484375 -24.25 C 13.046875 -24.238281 13.472656 -24.210938 13.765625 -24.171875 C 14.503906 -24.109375 15.191406 -23.957031 15.828125 -23.71875 C 16.472656 -23.476562 17.035156 -23.125 17.515625 -22.65625 C 17.878906 -22.351562 18.128906 -22.03125 18.265625 -21.6875 Z M 13.765625 -6.4375 L 13.765625 -17.5625 C 13.710938 -17.945312 13.554688 -18.265625 13.296875 -18.515625 C 13.046875 -18.773438 12.710938 -18.90625 12.296875 -18.90625 L 8.03125 -18.9375 C 7.613281 -18.9375 7.28125 -18.804688 7.03125 -18.546875 C 6.789062 -18.296875 6.632812 -17.96875 6.5625 -17.5625 L 6.5625 -6.4375 C 6.613281 -6.03125 6.765625 -5.703125 7.015625 -5.453125 C 7.273438 -5.210938 7.613281 -5.09375 8.03125 -5.09375 L 12.296875 -5.0625 L 12.296875 -5.09375 C 12.710938 -5.09375 13.046875 -5.210938 13.296875 -5.453125 C 13.554688 -5.703125 13.710938 -6.03125 13.765625 -6.4375 Z M 13.765625 -6.4375 "/></g></g></g><g clip-path="url(#31f3151c2b)"><g clip-path="url(#f579a07a24)"><path fill="#624cf5" d="M 185.285156 35.429688 L 192 35.429688 L 192 42.144531 L 185.285156 42.144531 Z M 185.285156 35.429688 " fill-opacity="1" fill-rule="nonzero"/></g></g><g clip-path="url(#e6ef649d6b)"><g clip-path="url(#3c07c3f90b)"><path fill="url(#a8062b3cc2)" d="M 0.00390625 7.535156 L 0.00390625 49.464844 L 39.746094 49.464844 L 39.746094 7.535156 Z M 0.00390625 7.535156 " fill-rule="nonzero"/></g></g></svg>